<?xml version="1.0" encoding="UTF-8"?>
<svg width="170px" height="60px" viewBox="0 0 170 60" version="1.1" xmlns="http://www.w3.org/2000/svg" xmlns:xlink="http://www.w3.org/1999/xlink">
    <!-- Generator: Sketch 50.2 (55047) - http://www.bohemiancoding.com/sketch -->
    <title>eid-logo-sm</title>
    <desc>Created with Sketch.</desc>
    <defs></defs>
    <g id="Page-1" stroke="none" stroke-width="1" fill="none" fill-rule="evenodd">
        <g id="eid-logo-rev-sm" transform="translate(-3.000000, -3.000000)">
            <g id="eid-logo-sm" transform="translate(3.000000, 3.000000)">
                <rect id="Rectangle" fill="#4A4A4A" x="0" y="0" width="170" height="60" rx="4"></rect>
                <path d="M32.1123343,33.2333554 C32.0462922,33.9433067 31.9719962,34.7151605 31.8894438,35.5489404 C31.8068913,36.3827203 31.7160849,37.1834673 31.6170221,37.9512053 C31.517959,38.7189431 31.423025,39.3999907 31.3322174,39.9943684 C31.2414098,40.5887463 31.1629861,41.0097575 31.096944,41.2574148 L7,41.2574148 L7,39.2018687 C8.12271353,38.9707219 8.96060847,38.7189406 9.51370999,38.4465175 C10.0668115,38.1740944 10.3433581,37.9223131 10.3433581,37.6911662 L10.3433581,13.6437534 C10.3433581,13.4456275 10.0833217,13.1979738 9.56324121,12.9007849 C9.0431607,12.6035961 8.1887555,12.3394321 7,12.1082852 L7,10.0527391 L29.4376478,10.0527391 L30.5025694,10.9195357 C30.4695482,11.3488085 30.4200175,11.9101568 30.3539757,12.6035975 C30.2879336,13.2970383 30.2053823,14.0069788 30.1063195,14.7334405 C30.0072565,15.4599022 29.9040675,16.1450774 29.7967493,16.7889866 C29.6894311,17.4328958 29.5862419,17.9116929 29.4871791,18.2253923 L27.3821017,18.2253923 C27.2995492,16.6899165 27.0931712,15.480541 26.7629613,14.5972296 C26.4327515,13.7139182 25.9622095,13.2722692 25.3513212,13.2722692 L17.2777305,13.2722692 L17.2777305,23.0546874 L27.0601487,23.0546874 L27.9517108,23.9957809 C27.8196268,24.2269276 27.658652,24.4993467 27.4687813,24.8130461 C27.2789107,25.1267455 27.0807877,25.4445677 26.8744066,25.7665223 C26.6680254,26.0884769 26.4616474,26.3815337 26.2552662,26.6457016 C26.048885,26.9098696 25.8548897,27.1079926 25.6732742,27.2400763 C25.4256168,26.992419 25.1573253,26.786041 24.8683917,26.6209361 C24.5794581,26.4558312 24.2492532,26.3154941 23.8777671,26.1999205 C23.506281,26.0843471 23.0687595,26.0017959 22.5651895,25.9522644 C22.0616194,25.9027328 21.463123,25.8779675 20.7696823,25.8779675 L17.2777305,25.8779675 L17.2777305,36.4528855 C17.2777305,36.7005429 17.3355164,36.9193036 17.4510898,37.1091743 C17.5666633,37.2990449 17.8060618,37.4641474 18.1692927,37.6044865 C18.5325235,37.7448259 19.0443411,37.8521425 19.7047608,37.9264395 C20.3651806,38.0007368 21.2402236,38.0378849 22.3299161,38.0378849 L24.5340559,38.0378849 C25.2935386,38.0378849 25.9415657,37.9346959 26.4781567,37.7283147 C27.0147478,37.5219335 27.4894172,37.1958561 27.9021797,36.7500727 C28.3149419,36.3042896 28.69055,35.7346861 29.0290152,35.0412454 C29.3674803,34.3478046 29.7100678,33.5140373 30.0567882,32.5399181 L32.1123343,33.2333554 Z M75.2788025,38.1864786 C74.5193197,38.6983039 73.7185729,39.1853561 72.8765377,39.6476499 C72.0345026,40.1099436 71.2378832,40.5144446 70.4866558,40.861165 C69.7354284,41.2078853 69.0750185,41.484432 68.5054065,41.6908132 C67.9357946,41.8971944 67.5354212,42.0003834 67.3042742,42.0003834 C66.6768755,42.0003834 66.173313,41.6495407 65.7935717,40.9478446 C65.4138304,40.2461487 65.1331561,39.2266412 64.9515407,37.8892912 C64.1425265,38.6652844 63.4160758,39.3174391 62.7721666,39.8457749 C62.1282573,40.3741105 61.509123,40.7992495 60.9147453,41.1212041 C60.3203676,41.4431587 59.7177436,41.6701744 59.1068555,41.8022584 C58.4959672,41.9343423 57.8190472,42.0003834 57.0760749,42.0003834 C55.9038299,42.0003834 54.7604954,41.732092 53.6460372,41.1955009 C52.5315789,40.6589099 51.5409641,39.8870559 50.6741632,38.8799157 C49.8073624,37.8727757 49.105677,36.6427624 48.569086,35.1898391 C48.032495,33.7369157 47.7642033,32.0941463 47.7642033,30.2614816 C47.7642033,28.5278798 48.0613877,26.8892379 48.6557657,25.3455069 C49.2501434,23.8017757 50.0839107,22.4479357 51.1570927,21.2839458 C52.2302748,20.1199561 53.5139464,19.1953824 55.0081461,18.5101969 C56.5023455,17.8250114 58.1409874,17.4824238 59.9241208,17.4824238 C60.7001139,17.4824238 61.4719678,17.5732302 62.2397058,17.7548456 C63.0074438,17.936461 63.8370835,18.3244518 64.7286501,18.9188295 L64.7286501,10.6966451 C64.7286501,9.78856802 64.7162675,9.06624479 64.6915017,8.52965377 C64.666736,7.99306274 64.5552918,7.5803066 64.357166,7.29137299 C64.1590399,7.00243935 63.8329626,6.80431642 63.378924,6.69699821 C62.9248855,6.58968001 62.2603482,6.50300122 61.385292,6.43695924 L61.385292,4.4804756 C62.3759216,4.39792313 63.3211333,4.29060655 64.220955,4.15852259 C65.120777,4.02643866 65.9586719,3.89022913 66.7346651,3.74988994 C67.5106583,3.60955075 68.2082161,3.46095854 68.8273595,3.30410886 C69.446503,3.14725917 69.9707033,3.00279453 70.3999762,2.87071058 L71.4153664,3.86133521 L71.4153664,33.4810115 C71.4153664,34.0588789 71.427749,34.5418035 71.4525148,34.9298002 C71.4772805,35.3177967 71.5103011,35.6314912 71.5515774,35.8708934 C71.5928535,36.1102956 71.6506394,36.2877808 71.7249367,36.4033542 C71.7992337,36.5189276 71.8859125,36.6014788 71.9849756,36.6510103 C72.0840386,36.7005418 72.1872276,36.73769 72.2945458,36.7624557 C72.401864,36.7872215 72.5422011,36.7830939 72.7155612,36.7500729 C72.8889215,36.7170518 73.1159372,36.6551385 73.3966157,36.5643307 C73.677294,36.4735231 74.0322643,36.3290584 74.4615371,36.1309325 L75.2788025,38.1864786 Z M64.7286501,34.5211674 L64.7286501,23.9710151 C64.1012514,23.0134066 63.3706731,22.2704455 62.5368932,21.7421097 C61.7031133,21.213774 60.7413915,20.94961 59.6516989,20.94961 C58.9087268,20.94961 58.219424,21.0940747 57.58377,21.3830083 C56.9481161,21.6719419 56.3991505,22.1301013 55.9368567,22.7575 C55.4745627,23.3848986 55.1113375,24.1939008 54.8471696,25.1845304 C54.5830016,26.1751598 54.4509197,27.3638976 54.4509197,28.7507791 C54.4509197,30.0220869 54.6036394,31.1571662 54.9090836,32.1560512 C55.2145277,33.154936 55.6190287,33.9969585 56.1225987,34.6821438 C56.6261688,35.3673294 57.1998999,35.8915297 57.8438091,36.2547605 C58.4877183,36.6179914 59.148128,36.799604 59.8250583,36.799604 C60.2378206,36.799604 60.6340664,36.7624559 61.0138079,36.6881589 C61.3935492,36.6138616 61.7774124,36.4900346 62.1654089,36.3166746 C62.5534056,36.1433145 62.9579066,35.9080434 63.378924,35.6108545 C63.7999417,35.3136656 64.2498459,34.9504402 64.7286501,34.5211674 Z M91.3936896,30.484372 C91.3936896,29.1800432 91.2822454,27.9376471 91.0593536,26.7571468 C90.836462,25.5766466 90.5103847,24.5365013 90.0811119,23.6366793 C89.651839,22.7368576 89.1111285,22.0227894 88.4589641,21.4944536 C87.8067995,20.9661178 87.059711,20.7019539 86.2176758,20.7019539 C85.2765777,20.7019539 84.5005963,20.9248422 83.889708,21.3706255 C83.2788197,21.8164088 82.7958951,22.4355429 82.4409195,23.2280467 C82.0859438,24.0205503 81.8382903,24.9575068 81.6979509,26.038944 C81.5576118,27.1203814 81.4874433,28.2884812 81.4874433,29.5432788 C81.4874433,30.8476076 81.6153976,32.0611107 81.8713102,33.1838241 C82.1272229,34.3065376 82.4821932,35.2847697 82.9362318,36.1185497 C83.3902703,36.9523296 83.9351084,37.6044843 84.5707625,38.0750332 C85.2064163,38.5455824 85.9039743,38.7808533 86.6634569,38.7808533 C87.5880444,38.7808533 88.3557709,38.6033683 88.9666592,38.2483925 C89.5775475,37.893417 90.0604721,37.3650892 90.4154476,36.6633931 C90.7704234,35.9616972 91.0222045,35.0949093 91.170799,34.0630036 C91.3193933,33.0310977 91.3936896,31.8382325 91.3936896,30.484372 Z M98.45189,29.2460913 C98.45189,30.3522943 98.2991702,31.4337153 97.9937261,32.490387 C97.6882821,33.5470585 97.2631431,34.5459282 96.7182969,35.4870265 C96.1734507,36.4281246 95.5171684,37.29904 94.7494304,38.099799 C93.9816924,38.9005577 93.1355424,39.5898605 92.2109548,40.1677279 C91.2863671,40.745595 90.2957525,41.1954993 89.2390809,41.5174539 C88.1824094,41.8394085 87.0927332,42.0003834 85.9700196,42.0003834 C84.2199074,42.0003834 82.6349238,41.703199 81.2150214,41.1088211 C79.795119,40.5144434 78.5816161,39.6971862 77.5744759,38.6570253 C76.5673359,37.6168642 75.7913543,36.3785957 75.2465081,34.942183 C74.7016619,33.50577 74.4292429,31.9455517 74.4292429,30.2614816 C74.4292429,29.171789 74.5654524,28.098623 74.8378755,27.0419515 C75.1102986,25.98528 75.5024168,24.9822825 76.0142423,24.0329292 C76.5260675,23.0835759 77.1534569,22.2085328 77.8964289,21.4077739 C78.6394011,20.607015 79.4731684,19.9177123 80.3977562,19.339845 C81.3223437,18.7619778 82.3335962,18.307946 83.431544,17.9777361 C84.5294918,17.6475263 85.6975917,17.4824238 86.9358786,17.4824238 C88.6694805,17.4824238 90.2462089,17.7796083 91.6661113,18.373986 C93.0860137,18.9683638 94.2995166,19.7897485 95.3066568,20.8381648 C96.313797,21.8865811 97.0897784,23.128977 97.6346246,24.56539 C98.179471,26.0018028 98.45189,27.562021 98.45189,29.2460913 Z M98.1329088,41.2574148 L98.1329088,39.2018687 C98.8428601,39.0862953 99.4248462,38.9665962 99.8788847,38.8427674 C100.332923,38.7189386 100.687894,38.5951119 100.943806,38.4712831 C101.199719,38.3474545 101.373077,38.2195 101.463884,38.087416 C101.554692,37.9553321 101.600095,37.8232501 101.600095,37.6911662 L101.600095,10.1518016 C101.600095,9.40882941 101.562947,8.83097083 101.48865,8.4182085 C101.414353,8.00544617 101.261633,7.69587908 101.030486,7.48949791 C100.799339,7.28311675 100.473262,7.14277965 100.052244,7.06848245 C99.6312266,6.99418522 99.0740057,6.91576156 98.380565,6.83320909 L98.380565,4.85195984 C99.2886421,4.73638639 100.126537,4.61668711 100.894275,4.49285842 C101.662013,4.36902972 102.392591,4.23282018 103.086032,4.08422575 C103.779473,3.93563132 104.456393,3.76227374 105.116812,3.56414782 C105.777232,3.36602191 106.454152,3.13487847 107.147593,2.87071058 L108.286811,3.96039767 L108.286811,37.6911662 C108.286811,37.8232501 108.34047,37.9512047 108.447788,38.0750332 C108.555106,38.198862 108.740846,38.3268164 109.005014,38.4589003 C109.269182,38.5909843 109.624152,38.7189386 110.069936,38.8427674 C110.515719,38.9665962 111.077067,39.0862953 111.753997,39.2018687 L111.753997,41.2574148 L98.1329088,41.2574148 Z M128.027979,30.484372 C128.027979,29.1800432 127.916535,27.9376471 127.693643,26.7571468 C127.470751,25.5766466 127.144674,24.5365013 126.715401,23.6366793 C126.286128,22.7368576 125.745418,22.0227894 125.093253,21.4944536 C124.441089,20.9661178 123.694,20.7019539 122.851965,20.7019539 C121.910867,20.7019539 121.134886,20.9248422 120.523997,21.3706255 C119.913109,21.8164088 119.430184,22.4355429 119.075209,23.2280467 C118.720233,24.0205503 118.47258,24.9575068 118.33224,26.038944 C118.191901,27.1203814 118.121733,28.2884812 118.121733,29.5432788 C118.121733,30.8476076 118.249687,32.0611107 118.5056,33.1838241 C118.761512,34.3065376 119.116483,35.2847697 119.570521,36.1185497 C120.02456,36.9523296 120.569398,37.6044843 121.205052,38.0750332 C121.840706,38.5455824 122.538264,38.7808533 123.297746,38.7808533 C124.222334,38.7808533 124.99006,38.6033683 125.600949,38.2483925 C126.211837,37.893417 126.694761,37.3650892 127.049737,36.6633931 C127.404713,35.9616972 127.656494,35.0949093 127.805088,34.0630036 C127.953683,33.0310977 128.027979,31.8382325 128.027979,30.484372 Z M135.086179,29.2460913 C135.086179,30.3522943 134.933459,31.4337153 134.628015,32.490387 C134.322571,33.5470585 133.897432,34.5459282 133.352586,35.4870265 C132.80774,36.4281246 132.151458,37.29904 131.38372,38.099799 C130.615982,38.9005577 129.769832,39.5898605 128.845244,40.1677279 C127.920657,40.745595 126.930042,41.1954993 125.87337,41.5174539 C124.816699,41.8394085 123.727023,42.0003834 122.604309,42.0003834 C120.854197,42.0003834 119.269213,41.703199 117.849311,41.1088211 C116.429408,40.5144434 115.215905,39.6971862 114.208765,38.6570253 C113.201625,37.6168642 112.425644,36.3785957 111.880797,34.942183 C111.335951,33.50577 111.063532,31.9455517 111.063532,30.2614816 C111.063532,29.171789 111.199742,28.098623 111.472165,27.0419515 C111.744588,25.98528 112.136706,24.9822825 112.648532,24.0329292 C113.160357,23.0835759 113.787746,22.2085328 114.530718,21.4077739 C115.27369,20.607015 116.107458,19.9177123 117.032046,19.339845 C117.956633,18.7619778 118.967886,18.307946 120.065833,17.9777361 C121.163781,17.6475263 122.331881,17.4824238 123.570168,17.4824238 C125.30377,17.4824238 126.880498,17.7796083 128.300401,18.373986 C129.720303,18.9683638 130.933806,19.7897485 131.940946,20.8381648 C132.948086,21.8865811 133.724068,23.128977 134.268914,24.56539 C134.81376,26.0018028 135.086179,27.562021 135.086179,29.2460913 Z M149.874224,41.2574148 L149.874224,39.2018687 C151.062979,38.8881695 151.896747,38.6157504 152.375551,38.3846035 C152.854355,38.1534567 153.093754,37.9223131 153.093754,37.6911662 L153.093754,27.066717 C153.093754,26.191661 153.052478,25.4569551 152.969926,24.8625774 C152.887373,24.2681995 152.751164,23.7935301 152.561293,23.4385545 C152.371422,23.0835787 152.123769,22.8276701 151.818325,22.6708204 C151.51288,22.5139706 151.129017,22.435547 150.666724,22.435547 C150.320003,22.435547 149.95265,22.4644399 149.564654,22.5222266 C149.176657,22.5800133 148.747391,22.6873299 148.276842,22.8441796 C147.806292,23.0010293 147.265582,23.2280453 146.654694,23.5252341 C146.043805,23.822423 145.34212,24.2104136 144.549616,24.6892179 L144.549616,37.6911662 C144.549616,37.9388237 144.817908,38.1947324 145.354499,38.4589003 C145.89109,38.7230682 146.695964,38.9707219 147.769146,39.2018687 L147.769146,41.2574148 L134.64337,41.2574148 L134.64337,39.2018687 C135.733063,38.9211904 136.542065,38.6694091 137.0704,38.4465175 C137.598736,38.2236259 137.8629,37.9718447 137.8629,37.6911662 L137.8629,24.3920307 C137.8629,23.7481215 137.850518,23.2363037 137.825752,22.8565624 C137.800986,22.4768211 137.693669,22.1796367 137.503799,21.9650003 C137.313928,21.7503639 137.000233,21.5935165 136.562705,21.4944536 C136.125177,21.3953906 135.485405,21.2963291 134.64337,21.1972662 L134.64337,19.2160169 C135.501916,19.1334645 136.30679,19.0385306 137.058018,18.9312124 C137.809245,18.8238942 138.519186,18.7000673 139.187861,18.5597281 C139.856536,18.4193889 140.50869,18.2625416 141.144344,18.0891814 C141.779998,17.9158213 142.41977,17.7135707 143.063679,17.4824238 L144.178132,18.5968765 L144.450554,21.2963287 C145.490715,20.569867 146.464819,19.9631154 147.372897,19.4760559 C148.280974,18.9889964 149.143634,18.596878 149.960903,18.2996892 C150.778173,18.0025003 151.545899,17.7919946 152.264106,17.668166 C152.982312,17.5443373 153.66336,17.4824238 154.307269,17.4824238 C155.01722,17.4824238 155.702395,17.5979955 156.362815,17.8291425 C157.023235,18.0602894 157.605221,18.4358974 158.108791,18.955978 C158.612361,19.4760585 159.016862,20.1612337 159.322306,21.0115241 C159.62775,21.8618145 159.78047,22.9060874 159.78047,24.1443744 L159.78047,37.6911662 C159.78047,37.8067398 159.825873,37.9181839 159.916681,38.0255021 C160.007489,38.1328203 160.172591,38.2442645 160.411993,38.3598379 C160.651395,38.4754113 160.9816,38.6033656 161.402618,38.743705 C161.823635,38.8840441 162.356091,39.0367638 163,39.2018687 L163,41.2574148 L149.874224,41.2574148 Z M40.2781663,19.0606606 C37.9539814,19.0606606 36.069857,17.1622627 36.069857,14.8204702 C36.069857,12.4786777 37.9539814,10.5802798 40.2781663,10.5802798 C42.6023514,10.5802798 44.4864755,12.4786777 44.4864755,14.8204702 C44.4864755,17.1622627 42.6023514,19.0606606 40.2781663,19.0606606 Z M45.4429095,22.1123128 C45.6023151,22.4335393 45.7298397,22.8190112 45.6660774,23.204483 L45.3472662,30.0144858 C45.315385,30.8175521 44.6458813,31.4600053 43.8488529,31.4600053 L43.6894473,31.4600053 L42.4460833,39.8440182 C42.382321,40.5828391 41.7765795,41.1289243 41.0433135,41.1289243 L39.4811381,41.1289243 C38.747872,41.1289243 38.1421306,40.5828391 38.0783683,39.8440182 L36.8350042,31.4600053 L36.6755984,31.4600053 C35.8785703,31.4600053 35.2090665,30.8175521 35.1771853,30.0144858 L34.8583741,23.204483 C34.826493,22.8511337 34.9540174,22.4977847 35.113423,22.1444354 C35.6872835,20.9880198 36.8987664,20.2813214 38.1740117,20.2813214 L42.382321,20.2813214 C43.6575662,20.2813214 44.8690492,20.9558972 45.4429095,22.1123128 Z" id="E-dolon" fill="#FFFFFF" fill-rule="nonzero"></path>
                <path d="M8.65322797,56.0598954 L7.892,56.0598954 L7.892,45.602249 L8.65322797,45.602249 L8.65322797,56.0598954 Z M12.4076339,45.602249 C12.4766128,45.602249 12.5308097,45.6108712 12.5702263,45.628116 C12.6096428,45.6453607 12.6515222,45.6835449 12.6958658,45.7426697 L19.4656214,54.8034997 C19.4508402,54.6556877 19.4434497,54.5128049 19.4434497,54.3748471 L19.4434497,45.602249 L20.1086003,45.602249 L20.1086003,56.0598954 L19.7464628,56.0598954 C19.6331402,56.0598954 19.5419909,56.0106255 19.4730119,55.9120841 L12.6736941,46.836473 C12.6884753,46.984285 12.6958658,47.1247043 12.6958658,47.2577351 L12.6958658,56.0598954 L12.0381057,56.0598954 L12.0381057,45.602249 L12.4076339,45.602249 Z M30.0415168,45.602249 L30.0415168,46.245228 L26.368407,46.245228 L26.368407,56.0598954 L25.6145696,56.0598954 L25.6145696,46.245228 L21.9192882,46.245228 L21.9192882,45.602249 L30.0415168,45.602249 Z M38.1194019,45.602249 L38.1194019,46.2304468 L32.6134326,46.2304468 L32.6134326,50.4578488 L37.1955816,50.4578488 L37.1955816,51.0712655 L32.6134326,51.0712655 L32.6134326,55.4316976 L38.1194019,55.4316976 L38.1194019,56.0598954 L31.8522047,56.0598954 L31.8522047,45.602249 L38.1194019,45.602249 Z M41.5634042,51.3299352 L41.5634042,56.0598954 L40.8095668,56.0598954 L40.8095668,45.602249 L43.47756,45.602249 C44.6846913,45.602249 45.5863309,45.8350494 46.182506,46.3006572 C46.778681,46.766265 47.0767641,47.4498852 47.0767641,48.3515384 C47.0767641,48.7506308 47.0077862,49.1152282 46.8698283,49.4453417 C46.7318704,49.7754551 46.533559,50.0649159 46.274888,50.3137328 C46.016217,50.5625497 45.7045847,50.7670199 45.3399818,50.9271495 C44.9753789,51.0872792 44.563975,51.1919778 44.1057578,51.2412484 C44.2240074,51.3151544 44.3299378,51.4136943 44.423552,51.5368709 L48.0227561,56.0598954 L47.364996,56.0598954 C47.286163,56.0598954 47.2184168,56.0451144 47.1617555,56.015552 C47.1050943,55.9859896 47.0496656,55.9367197 46.9954679,55.8677408 L43.6475429,51.6255577 C43.5637828,51.5171622 43.4738652,51.4407939 43.3777874,51.3964503 C43.2817096,51.3521067 43.1326681,51.3299352 42.9306583,51.3299352 L41.5634042,51.3299352 Z M41.5634042,50.7682524 L43.3814827,50.7682524 C43.8446269,50.7682524 44.259726,50.7128237 44.6267925,50.6019648 C44.993859,50.4911058 45.3042595,50.3322102 45.5580034,50.1252735 C45.8117473,49.9183367 46.0051318,49.6695235 46.1381626,49.3788266 C46.2711934,49.0881297 46.3377078,48.7604847 46.3377078,48.3958818 C46.3377078,47.6518947 46.0938217,47.1000715 45.6060421,46.7403957 C45.1182625,46.3807198 44.4087755,46.2008846 43.47756,46.2008846 L41.5634042,46.2008846 L41.5634042,50.7682524 Z M57.7856896,56.0598954 L57.2018351,56.0598954 C57.1328562,56.0598954 57.0761958,56.0414192 57.0318522,56.0044662 C56.9875086,55.9675132 56.9530196,55.919475 56.9283843,55.8603502 L55.6941603,52.8228289 L50.5577192,52.8228289 L49.3308857,55.8603502 C49.3111775,55.9145479 49.2766885,55.9613544 49.2274179,56.0007709 C49.1781472,56.0401874 49.1190233,56.0598954 49.0500443,56.0598954 L48.4735804,56.0598954 L52.7527163,45.602249 L53.5065537,45.602249 L57.7856896,56.0598954 Z M50.7868266,52.2611461 L55.4724434,52.2611461 L53.3365708,46.9768937 C53.3020813,46.8931336 53.2675924,46.798289 53.2331029,46.692357 C53.1986134,46.5864251 53.1641245,46.474336 53.129635,46.3560864 C53.0951456,46.474336 53.0606566,46.5864251 53.0261671,46.692357 C52.9916777,46.798289 52.9571887,46.8955971 52.9226993,46.9842843 L50.7868266,52.2611461 Z M67.0386742,54.3009414 C67.0879449,54.3009414 67.1298243,54.3181859 67.1643138,54.3526754 L67.4599363,54.6704696 C67.2431454,54.9020417 67.0066498,55.1102071 66.7504423,55.2949721 C66.4942348,55.4797371 66.214628,55.6374009 65.9116134,55.7679682 C65.6085988,55.8985354 65.2760268,55.9995388 64.9138874,56.0709812 C64.551748,56.1424237 64.1538934,56.1781444 63.7203115,56.1781444 C62.9960328,56.1781444 62.3321205,56.0512743 61.7285549,55.7975304 C61.1249892,55.5437865 60.607655,55.184116 60.1765367,54.7185082 C59.7454183,54.2529005 59.4091511,53.6899916 59.1677248,53.0297646 C58.9262986,52.3695377 58.8055873,51.6354158 58.8055873,50.8273769 C58.8055873,50.0341192 58.9299938,49.3098513 59.1788107,48.6545514 C59.4276275,47.9992516 59.777444,47.4363427 60.2282706,46.9658078 C60.6790972,46.495273 61.2186029,46.1306755 61.8468039,45.8720045 C62.4750048,45.6133336 63.1684791,45.484 63.9272473,45.484 C64.3066314,45.484 64.6539844,45.5123302 64.9693167,45.5689915 C65.2846489,45.6256527 65.5790367,45.7069481 65.8524889,45.81288 C66.1259411,45.918812 66.3833765,46.050609 66.6248027,46.2082752 C66.866229,46.3659413 67.1027246,46.54824 67.3342968,46.7551768 L67.1051893,47.0877521 C67.0657728,47.1468769 67.0041854,47.1764389 66.9204252,47.1764389 C66.8760816,47.1764389 66.8194212,47.1505722 66.7504423,47.098838 C66.6814634,47.0471038 66.5940092,46.9830529 66.4880773,46.9066833 C66.3821454,46.8303138 66.2540436,46.7465549 66.1037681,46.6554042 C65.9534925,46.5642535 65.774889,46.4804946 65.5679522,46.4041251 C65.3610155,46.3277555 65.1220563,46.2637046 64.8510677,46.2119704 C64.580079,46.1602362 64.272142,46.1343695 63.9272473,46.1343695 C63.2916557,46.1343695 62.7078071,46.2439951 62.1756839,46.4632496 C61.6435607,46.682504 61.1853504,46.9953681 60.8010392,47.4018511 C60.416728,47.808334 60.1174132,48.3010333 59.9030858,48.8799636 C59.6887585,49.4588939 59.5815964,50.1080252 59.5815964,50.8273769 C59.5815964,51.5664369 59.6875267,52.2266539 59.8993906,52.8080478 C60.1112544,53.3894416 60.4044105,53.8809091 60.7788675,54.282465 C61.1533246,54.684021 61.5955222,54.991958 62.1054736,55.2062854 C62.6154249,55.4206128 63.1684799,55.5277749 63.7646549,55.5277749 C64.139112,55.5277749 64.4729157,55.5031399 64.7660762,55.4538692 C65.0592366,55.4045986 65.3289895,55.3306937 65.5753428,55.2321524 C65.8216961,55.133611 66.0508013,55.0128997 66.2626652,54.8700148 C66.474529,54.7271299 66.6839262,54.5596121 66.890863,54.3674565 C66.9154983,54.3477482 66.9389015,54.3317355 66.9610733,54.3194179 C66.9832451,54.3071002 67.0091118,54.3009414 67.0386742,54.3009414 Z M76.6685776,45.602249 L76.6685776,46.245228 L72.9954679,46.245228 L72.9954679,56.0598954 L72.2416305,56.0598954 L72.2416305,46.245228 L68.5463491,46.245228 L68.5463491,45.602249 L76.6685776,45.602249 Z M79.5139443,56.0598954 L78.7527163,56.0598954 L78.7527163,45.602249 L79.5139443,45.602249 L79.5139443,56.0598954 Z M81.4576623,45.602249 L82.0562979,45.602249 C82.1252768,45.602249 82.1819372,45.6207252 82.2262808,45.6576782 C82.2706244,45.6946312 82.3051134,45.7426694 82.3297487,45.8017942 L85.892,54.478315 C85.9856143,54.70496 86.0619826,54.9463826 86.1211074,55.2025901 C86.1753052,54.9365285 86.2467466,54.6951059 86.3354338,54.478315 L89.8902945,45.8017942 C89.9149298,45.7475965 89.9506505,45.70079 89.9974576,45.6613735 C90.0442648,45.621957 90.1021569,45.602249 90.1711359,45.602249 L90.7623809,45.602249 L86.4462922,56.0598954 L85.773751,56.0598954 L81.4576623,45.602249 Z M98.6924548,45.602249 L98.6924548,46.2304468 L93.1864855,46.2304468 L93.1864855,50.4578488 L97.7686345,50.4578488 L97.7686345,51.0712655 L93.1864855,51.0712655 L93.1864855,55.4316976 L98.6924548,55.4316976 L98.6924548,56.0598954 L92.4252575,56.0598954 L92.4252575,45.602249 L98.6924548,45.602249 Z M112.81582,50.8273769 C112.81582,51.6354158 112.695109,52.3621472 112.453683,53.007593 C112.212257,53.6530387 111.872294,54.2023983 111.433785,54.6556885 C110.995276,55.1089786 110.470551,55.4563316 109.859595,55.6977578 C109.248639,55.9391841 108.571177,56.0598954 107.82719,56.0598954 L104.01366,56.0598954 L104.01366,45.602249 L107.82719,45.602249 C108.571177,45.602249 109.248639,45.7229603 109.859595,45.9643866 C110.470551,46.2058128 110.995276,46.5531658 111.433785,47.0064559 C111.872294,47.4597461 112.212257,48.0091057 112.453683,48.6545514 C112.695109,49.2999972 112.81582,50.0242651 112.81582,50.8273769 Z M112.032421,50.8273769 C112.032421,50.0981711 111.931417,49.4478081 111.729408,48.8762683 C111.527398,48.3047286 111.242864,47.8218833 110.875798,47.427718 C110.508731,47.0335527 110.066534,46.7330062 109.549192,46.5260694 C109.03185,46.3191326 108.457855,46.2156657 107.82719,46.2156657 L104.774888,46.2156657 L104.774888,55.4464787 L107.82719,55.4464787 C108.457855,55.4464787 109.03185,55.3430118 109.549192,55.136075 C110.066534,54.9291382 110.508731,54.6285917 110.875798,54.2344264 C111.242864,53.8402611 111.527398,53.3574158 111.729408,52.7858761 C111.931417,52.2143364 112.032421,51.5615098 112.032421,50.8273769 Z M121.514513,45.602249 L121.514513,46.2304468 L116.008543,46.2304468 L116.008543,50.4578488 L120.590692,50.4578488 L120.590692,51.0712655 L116.008543,51.0712655 L116.008543,55.4316976 L121.514513,55.4316976 L121.514513,56.0598954 L115.247316,56.0598954 L115.247316,45.602249 L121.514513,45.602249 Z M129.038106,46.8734258 C128.993762,46.9571859 128.929711,46.9990654 128.845951,46.9990654 C128.781899,46.9990654 128.699372,46.9534907 128.598367,46.86234 C128.497362,46.7711892 128.360638,46.6701859 128.188191,46.5593269 C128.015744,46.4484679 127.800188,46.3462328 127.541517,46.2526185 C127.282846,46.1590043 126.963823,46.1121978 126.584439,46.1121978 C126.205055,46.1121978 125.871251,46.1663948 125.583018,46.2747902 C125.294784,46.3831857 125.053362,46.5309955 124.858742,46.718224 C124.664123,46.9054525 124.516314,47.1222402 124.415309,47.3685935 C124.314304,47.6149468 124.263802,47.873614 124.263802,48.1446026 C124.263802,48.4993514 124.338939,48.7925075 124.489214,49.0240796 C124.63949,49.2556517 124.837801,49.4527314 125.084155,49.6153246 C125.330508,49.7779178 125.610115,49.9146419 125.922984,50.0255009 C126.235852,50.1363598 126.557339,50.2459854 126.887452,50.3543809 C127.217565,50.4627764 127.539052,50.5822559 127.85192,50.7128232 C128.164789,50.8433905 128.444396,51.007213 128.690749,51.2042956 C128.937103,51.4013783 129.135414,51.6440327 129.28569,51.9322661 C129.435965,52.2204995 129.511102,52.5789382 129.511102,53.007593 C129.511102,53.4461019 129.435965,53.8587375 129.28569,54.2455122 C129.135414,54.6322869 128.917395,54.9685542 128.631625,55.254324 C128.345855,55.5400939 127.996038,55.7655038 127.582165,55.9305605 C127.168291,56.0956173 126.6953,56.1781444 126.163177,56.1781444 C125.473387,56.1781444 124.879685,56.0562013 124.382051,55.8123115 C123.884417,55.5684217 123.448379,55.234618 123.073922,54.8108903 L123.280857,54.4857055 C123.339982,54.4117995 123.40896,54.3748471 123.487793,54.3748471 C123.532137,54.3748471 123.588797,54.404409 123.657776,54.4635338 C123.726755,54.5226586 123.810514,54.5953318 123.909055,54.6815554 C124.007596,54.7677791 124.125844,54.861392 124.263802,54.9623968 C124.40176,55.0634017 124.561887,55.1570145 124.744189,55.2432382 C124.92649,55.3294619 125.135887,55.402135 125.372387,55.4612598 C125.608886,55.5203846 125.877407,55.5499466 126.177958,55.5499466 C126.591832,55.5499466 126.961356,55.4871274 127.286542,55.3614872 C127.611729,55.235847 127.886409,55.064634 128.11059,54.8478431 C128.334772,54.6310522 128.505985,54.3736168 128.624234,54.0755293 C128.742484,53.7774418 128.801608,53.458419 128.801608,53.1184514 C128.801608,52.7489214 128.726471,52.4446796 128.576196,52.2057169 C128.42592,51.9667542 128.227609,51.767211 127.981255,51.6070813 C127.734902,51.4469516 127.455295,51.3126911 127.142426,51.2042956 C126.829558,51.0959002 126.508071,50.9899698 126.177958,50.8865014 C125.847844,50.783033 125.526358,50.6672487 125.213489,50.539145 C124.900621,50.4110412 124.621014,50.2472187 124.374661,50.0476725 C124.128307,49.8481263 123.929996,49.5993132 123.77972,49.3012257 C123.629445,49.0031382 123.554308,48.6299185 123.554308,48.1815554 C123.554308,47.8317337 123.620823,47.4942347 123.753853,47.1690483 C123.886884,46.8438619 124.0815,46.5568646 124.337708,46.3080478 C124.593915,46.0592309 124.910475,45.8596877 125.287395,45.7094122 C125.664316,45.5591366 126.094196,45.484 126.577048,45.484 C127.119026,45.484 127.605566,45.5702224 128.036684,45.7426697 C128.467803,45.915117 128.86073,46.1787111 129.215479,46.5334599 L129.038106,46.8734258 Z M132.740778,56.0598954 L131.97955,56.0598954 L131.97955,45.602249 L132.740778,45.602249 L132.740778,56.0598954 Z M140.619118,55.5647277 C140.978794,55.5647277 141.306439,55.5462515 141.602063,55.5092985 C141.897687,55.4723455 142.172366,55.4169168 142.42611,55.3430108 C142.679854,55.2691048 142.921277,55.1791872 143.150385,55.0732553 C143.379494,54.9673233 143.609831,54.8478438 143.841403,54.714813 L143.841403,51.8990085 L141.83117,51.8990085 C141.776972,51.8990085 141.731398,51.8817641 141.694445,51.8472746 C141.657492,51.8127851 141.639015,51.7733692 141.639015,51.7290256 L141.639015,51.3151541 L144.528725,51.3151541 L144.528725,55.0326072 C144.267591,55.2149086 143.996606,55.3774994 143.715764,55.5203843 C143.434921,55.6632692 143.134374,55.7827488 142.814115,55.8788266 C142.493856,55.9749044 142.148966,56.0488093 141.779436,56.1005435 C141.409906,56.1522777 141.005893,56.1781444 140.567384,56.1781444 C139.813543,56.1781444 139.124995,56.0512743 138.501721,55.7975304 C137.878448,55.5437865 137.343869,55.184116 136.897969,54.7185082 C136.45207,54.2529005 136.105949,53.6899916 135.859595,53.0297646 C135.613242,52.3695377 135.490067,51.6354158 135.490067,50.8273769 C135.490067,50.019338 135.613242,49.2864479 135.859595,48.6286845 C136.105949,47.9709211 136.455765,47.4092439 136.909055,46.9436362 C137.362345,46.4780284 137.912937,46.1183579 138.560846,45.864614 C139.208755,45.6108701 139.934255,45.484 140.737367,45.484 C141.136459,45.484 141.504752,45.5110985 141.842256,45.5652962 C142.17976,45.6194939 142.493856,45.6995576 142.784553,45.8054895 C143.07525,45.9114214 143.346234,46.0419867 143.597514,46.1971893 C143.848795,46.3523919 144.090218,46.5309954 144.32179,46.7330051 L144.122244,47.0581899 C144.077901,47.1320959 144.016313,47.1690483 143.93748,47.1690483 C143.893137,47.1690483 143.851257,47.1591943 143.811841,47.1394861 C143.737935,47.1099237 143.630773,47.0409458 143.490351,46.9325503 C143.34993,46.8241548 143.160241,46.710834 142.921278,46.5925844 C142.682315,46.4743348 142.383,46.3684045 142.023325,46.2747902 C141.663649,46.181176 141.22761,46.1343695 140.715195,46.1343695 C140.03526,46.1343695 139.421849,46.2427634 138.874945,46.4595543 C138.32804,46.6763452 137.861208,46.9867458 137.474433,47.3907652 C137.087658,47.7947847 136.789575,48.2874839 136.580175,48.8688778 C136.370775,49.4502716 136.266076,50.1030981 136.266076,50.8273769 C136.266076,51.5664369 136.372007,52.2291174 136.58387,52.8154383 C136.795734,53.4017592 137.092586,53.8981537 137.474433,54.3046367 C137.856281,54.7111197 138.314491,55.022752 138.849078,55.2395429 C139.383665,55.4563338 139.973672,55.5647277 140.619118,55.5647277 Z M147.558856,45.602249 C147.627835,45.602249 147.682032,45.6108712 147.721449,45.628116 C147.760865,45.6453607 147.802745,45.6835449 147.847088,45.7426697 L154.616844,54.8034997 C154.602062,54.6556877 154.594672,54.5128049 154.594672,54.3748471 L154.594672,45.602249 L155.259823,45.602249 L155.259823,56.0598954 L154.897685,56.0598954 C154.784363,56.0598954 154.693213,56.0106255 154.624234,55.9120841 L147.824916,46.836473 C147.839698,46.984285 147.847088,47.1247043 147.847088,47.2577351 L147.847088,56.0598954 L147.189328,56.0598954 L147.189328,45.602249 L147.558856,45.602249 Z M163.419004,46.8734258 C163.37466,46.9571859 163.310609,46.9990654 163.226849,46.9990654 C163.162797,46.9990654 163.08027,46.9534907 162.979265,46.86234 C162.878261,46.7711892 162.741537,46.6701859 162.569089,46.5593269 C162.396642,46.4484679 162.181086,46.3462328 161.922415,46.2526185 C161.663744,46.1590043 161.344721,46.1121978 160.965337,46.1121978 C160.585953,46.1121978 160.252149,46.1663948 159.963916,46.2747902 C159.675682,46.3831857 159.43426,46.5309955 159.239641,46.718224 C159.045022,46.9054525 158.897212,47.1222402 158.796207,47.3685935 C158.695202,47.6149468 158.6447,47.873614 158.6447,48.1446026 C158.6447,48.4993514 158.719837,48.7925075 158.870113,49.0240796 C159.020388,49.2556517 159.2187,49.4527314 159.465053,49.6153246 C159.711406,49.7779178 159.991013,49.9146419 160.303882,50.0255009 C160.61675,50.1363598 160.938237,50.2459854 161.26835,50.3543809 C161.598464,50.4627764 161.91995,50.5822559 162.232819,50.7128232 C162.545687,50.8433905 162.825294,51.007213 163.071648,51.2042956 C163.318001,51.4013783 163.516312,51.6440327 163.666588,51.9322661 C163.816863,52.2204995 163.892,52.5789382 163.892,53.007593 C163.892,53.4461019 163.816863,53.8587375 163.666588,54.2455122 C163.516312,54.6322869 163.298293,54.9685542 163.012523,55.254324 C162.726753,55.5400939 162.376937,55.7655038 161.963063,55.9305605 C161.54919,56.0956173 161.076198,56.1781444 160.544075,56.1781444 C159.854286,56.1781444 159.260583,56.0562013 158.762949,55.8123115 C158.265316,55.5684217 157.829277,55.234618 157.45482,54.8108903 L157.661756,54.4857055 C157.72088,54.4117995 157.789858,54.3748471 157.868691,54.3748471 C157.913035,54.3748471 157.969695,54.404409 158.038674,54.4635338 C158.107653,54.5226586 158.191412,54.5953318 158.289953,54.6815554 C158.388495,54.7677791 158.506743,54.861392 158.6447,54.9623968 C158.782658,55.0634017 158.942786,55.1570145 159.125087,55.2432382 C159.307388,55.3294619 159.516786,55.402135 159.753285,55.4612598 C159.989784,55.5203846 160.258305,55.5499466 160.558856,55.5499466 C160.97273,55.5499466 161.342254,55.4871274 161.667441,55.3614872 C161.992627,55.235847 162.267307,55.064634 162.491488,54.8478431 C162.71567,54.6310522 162.886883,54.3736168 163.005132,54.0755293 C163.123382,53.7774418 163.182506,53.458419 163.182506,53.1184514 C163.182506,52.7489214 163.107369,52.4446796 162.957094,52.2057169 C162.806818,51.9667542 162.608507,51.767211 162.362153,51.6070813 C162.1158,51.4469516 161.836193,51.3126911 161.523325,51.2042956 C161.210456,51.0959002 160.88897,50.9899698 160.558856,50.8865014 C160.228743,50.783033 159.907256,50.6672487 159.594388,50.539145 C159.281519,50.4110412 159.001912,50.2472187 158.755559,50.0476725 C158.509206,49.8481263 158.310894,49.5993132 158.160619,49.3012257 C158.010343,49.0031382 157.935206,48.6299185 157.935206,48.1815554 C157.935206,47.8317337 158.001721,47.4942347 158.134752,47.1690483 C158.267782,46.8438619 158.462399,46.5568646 158.718606,46.3080478 C158.974813,46.0592309 159.291373,45.8596877 159.668293,45.7094122 C160.045214,45.5591366 160.475094,45.484 160.957947,45.484 C161.499924,45.484 161.986464,45.5702224 162.417583,45.7426697 C162.848701,45.915117 163.241629,46.1787111 163.596377,46.5334599 L163.419004,46.8734258 Z" id="INTERACTIVE-DESIGNS" fill="#FFFFFF"></path>
            </g>
        </g>
    </g>
</svg>